# xmcd
#
# Track frame offsets:
#	150
#	16377
#	30396
#	44127
#	54734
#	66608
#	78006
#	89933
#	98955
#	110175
#	122537
#	134907
#
# Disc length: 1957 seconds
#
# Revision: 6
# Processed by: cddbd v1.5.1PL2 Copyright (c) Steve Scherf et al.
# Submitted via: EasyCDDAExtractor 9.0.0.1
#
DISCID=b607a30c
DTITLE=Waylon Jennings - Honky Tonk Heroes
DYEAR=1973
DGENRE=Country
TTITLE0=Honky Tonk Heroes
TTITLE1=Old Five And Dimers (Like Me)
TTITLE2=Willy The Wandering Gypsy And Me
TTITLE3=Low Down Freedom
TTITLE4=Omaha
TTITLE5=You Ask Me To
TTITLE6=Ride Me Down Easy
TTITLE7=Ain't No God In Mexico
TTITLE8=Black Rose
TTITLE9=We Had It All
TTITLE10=Slow Rollin' Low
TTITLE11=You Ask Me To (Single Version)
EXTD=Original Masters
EXTT0=
EXTT1=
EXTT2=
EXTT3=
EXTT4=
EXTT5=
EXTT6=
EXTT7=
EXTT8=
EXTT9=
EXTT10=
EXTT11=
PLAYORDER=
